<?xml version="1.0" encoding="UTF-8" standalone="no"?>
<!-- Created with Inkscape (http://www.inkscape.org/) -->

<svg
   width="107.0481mm"
   height="55.388569mm"
   viewBox="0 0 107.04809 55.388569"
   version="1.1"
   id="svg5"
   inkscape:version="1.1.2 (b8e25be8, 2022-02-05)"
   sodipodi:docname="drawing.svg"
   inkscape:export-filename="/Users/gabrielgrinstein/MIT_xPro/Week2_Computational_Thinking/computational-thinking-self-study-activities_starter/one-dimensional-motion/drawing.png"
   inkscape:export-xdpi="95.915237"
   inkscape:export-ydpi="95.915237"
   xmlns:inkscape="http://www.inkscape.org/namespaces/inkscape"
   xmlns:sodipodi="http://sodipodi.sourceforge.net/DTD/sodipodi-0.dtd"
   xmlns="http://www.w3.org/2000/svg"
   xmlns:svg="http://www.w3.org/2000/svg">
  <sodipodi:namedview
     id="namedview7"
     pagecolor="#ffffff"
     bordercolor="#666666"
     borderopacity="1.0"
     inkscape:pageshadow="2"
     inkscape:pageopacity="0.44313725"
     inkscape:pagecheckerboard="true"
     inkscape:document-units="mm"
     showgrid="false"
     inkscape:zoom="0.55678311"
     inkscape:cx="241.56624"
     inkscape:cy="42.20674"
     inkscape:window-width="1312"
     inkscape:window-height="847"
     inkscape:window-x="14"
     inkscape:window-y="102"
     inkscape:window-maximized="0"
     inkscape:current-layer="layer1"
     fit-margin-top="0"
     fit-margin-left="0"
     fit-margin-right="0"
     fit-margin-bottom="0" />
  <defs
     id="defs2">
    <filter
       style="color-interpolation-filters:sRGB"
       inkscape:label="Edge Detect"
       id="filter910"
       x="0"
       y="0"
       width="1"
       height="1">
      <feConvolveMatrix
         in="SourceGraphic"
         kernelMatrix="0 1 0 1 -4 1 0 1 0"
         order="3 3"
         bias="0"
         divisor="0.5"
         targetX="1"
         targetY="1"
         preserveAlpha="true"
         result="fbSourceGraphic"
         id="feConvolveMatrix908" />
      <feColorMatrix
         result="fbSourceGraphicAlpha"
         in="fbSourceGraphic"
         values="0 0 0 -1 0 0 0 0 -1 0 0 0 0 -1 0 0 0 0 1 0"
         id="feColorMatrix930" />
      <feConvolveMatrix
         id="feConvolveMatrix932"
         in="fbSourceGraphic"
         kernelMatrix="0 1 0 1 -4 1 0 1 0"
         order="3 3"
         bias="0"
         divisor="0.5"
         targetX="1"
         targetY="1"
         preserveAlpha="true"
         result="fbSourceGraphic" />
      <feColorMatrix
         result="fbSourceGraphicAlpha"
         in="fbSourceGraphic"
         values="0 0 0 -1 0 0 0 0 -1 0 0 0 0 -1 0 0 0 0 1 0"
         id="feColorMatrix952" />
      <feConvolveMatrix
         id="feConvolveMatrix954"
         in="fbSourceGraphic"
         kernelMatrix="0 1 0 1 -4 1 0 1 0"
         order="3 3"
         bias="0"
         divisor="0.5"
         targetX="1"
         targetY="1"
         preserveAlpha="true"
         result="fbSourceGraphic" />
      <feColorMatrix
         result="fbSourceGraphicAlpha"
         in="fbSourceGraphic"
         values="0 0 0 -1 0 0 0 0 -1 0 0 0 0 -1 0 0 0 0 1 0"
         id="feColorMatrix974" />
      <feConvolveMatrix
         id="feConvolveMatrix976"
         in="fbSourceGraphic"
         kernelMatrix="0 1 0 1 -4 1 0 1 0"
         order="3 3"
         bias="0"
         divisor="0.5"
         targetX="1"
         targetY="1"
         preserveAlpha="true"
         result="fbSourceGraphic" />
      <feColorMatrix
         result="fbSourceGraphicAlpha"
         in="fbSourceGraphic"
         values="0 0 0 -1 0 0 0 0 -1 0 0 0 0 -1 0 0 0 0 1 0"
         id="feColorMatrix996" />
      <feConvolveMatrix
         id="feConvolveMatrix998"
         in="fbSourceGraphic"
         kernelMatrix="0 1 0 1 -4 1 0 1 0"
         order="3 3"
         bias="0"
         divisor="0.5"
         targetX="1"
         targetY="1"
         preserveAlpha="true"
         result="fbSourceGraphic" />
      <feColorMatrix
         result="fbSourceGraphicAlpha"
         in="fbSourceGraphic"
         values="0 0 0 -1 0 0 0 0 -1 0 0 0 0 -1 0 0 0 0 1 0"
         id="feColorMatrix1018" />
      <feConvolveMatrix
         id="feConvolveMatrix1020"
         in="fbSourceGraphic"
         kernelMatrix="0 1 0 1 -4 1 0 1 0"
         order="3 3"
         bias="0"
         divisor="0.5"
         targetX="1"
         targetY="1"
         preserveAlpha="true"
         result="convolve" />
    </filter>
  </defs>
  <g
     inkscape:label="Layer 1"
     inkscape:groupmode="layer"
     id="layer1"
     transform="translate(-62.187151,-139.19557)">
    <path
       style="fill:#000000;stroke-width:0.577929"
       d="m 90.70146,193.8883 c -0.4708,-0.50458 -0.66991,-3.87977 -0.66991,-11.35629 0,-10.55136 -0.0102,-10.6406 -1.25607,-10.91548 -8.29819,-1.83102 -10.82245,-2.52144 -14.60143,-3.99365 -2.42732,-0.94564 -4.98244,-2.119 -5.67805,-2.60748 l -1.26474,-0.88814 -0.18361,7.81026 c -0.1623,6.90404 -0.30911,7.90846 -1.26528,8.65666 -0.91832,0.71859 -1.25553,0.72276 -2.23301,0.0276 -1.09346,-0.77762 -1.1589,-1.449 -1.30172,-13.35451 -0.14627,-12.19279 -0.11555,-12.59113 1.12288,-14.56065 3.65547,-5.81347 12.58363,-9.58353 29.17317,-12.31884 9.64098,-1.58961 36.69405,-1.58961 46.33503,0 16.58954,2.73531 25.5177,6.50537 29.17317,12.31884 1.23843,1.96952 1.26914,2.36786 1.12287,14.56065 -0.14541,12.12286 -0.19039,12.56419 -1.36551,13.39991 -1.09376,0.77785 -1.33078,0.74026 -2.37259,-0.37627 -1.04583,-1.12086 -1.15742,-1.9513 -1.15742,-8.61332 v -7.37285 l -3.20996,1.64962 c -3.35515,1.72425 -12.34126,4.71991 -14.15835,4.71991 -0.99517,0 -1.05405,0.61704 -1.05405,11.04748 0,10.43515 -0.0619,11.08298 -1.1165,11.68789 -0.79328,0.455 -1.43974,0.455 -2.23302,0 -1.05149,-0.60311 -1.11651,-1.25274 -1.11651,-11.15618 V 171.7377 l -1.81432,0.34728 c -5.97938,1.14457 -18.04851,1.71171 -29.16873,1.37068 -6.75487,-0.20716 -12.97241,-0.54526 -13.81677,-0.75133 l -1.5352,-0.37467 v 9.98102 c 0,5.73602 -0.24578,10.47323 -0.57789,11.13829 -0.64598,1.2936 -2.7509,1.53846 -3.77648,0.43931 z m 38.77774,-31.30599 c 4.90615,-0.98755 8.43586,-2.84185 9.12907,-4.79591 1.98434,-5.59363 -6.34613,-8.79256 -22.89707,-8.79256 -16.55093,0 -24.8814,3.19893 -22.89706,8.79256 0.60667,1.7101 3.78783,3.60391 7.63673,4.54629 7.30287,1.78807 20.80824,1.90421 29.02833,0.24962 z m -26.16619,-4.70453 c -6.13077,-1.1717 -5.79891,-2.20479 1.05939,-3.29801 5.30496,-0.84562 17.37265,-0.84562 22.67761,0 7.17044,1.14297 7.17044,2.32769 0,3.47066 -5.31791,0.84768 -18.91575,0.74878 -23.737,-0.17265 z"
       id="path1040" />
  </g>
</svg>
